<svg id="svg" xmlns="http://www.w3.org/2000/svg" xmlns:xlink="http://www.w3.org/1999/xlink" width="400" height="400" viewBox="0, 0, 400,400"><g id="svgg"><path id="path0" d="M64.297 100.697 L 51.994 100.812 52.097 125.506 L 52.200 150.200 76.800 150.400 L 101.400 150.600 101.506 162.900 L 101.612 175.200 77.106 175.206 C 63.628 175.209,52.372 175.357,52.094 175.533 C 51.700 175.783,51.612 178.555,51.694 188.027 L 51.800 200.200 63.894 200.306 L 75.988 200.412 76.094 212.706 L 76.200 225.000 88.894 225.106 L 101.589 225.211 101.694 212.706 L 101.800 200.200 113.800 200.200 L 125.800 200.200 125.906 212.700 L 126.011 225.200 138.606 225.200 L 151.200 225.200 151.200 200.406 L 151.200 175.611 138.700 175.506 L 126.200 175.400 126.094 162.906 L 125.989 150.411 138.494 150.306 L 151.000 150.200 151.103 125.500 L 151.206 100.800 138.853 100.800 L 126.499 100.800 126.202 125.400 L 125.904 150.000 113.755 150.000 L 101.606 150.000 101.503 125.300 L 101.400 100.600 89.000 100.591 C 82.180 100.586,71.064 100.634,64.297 100.697 M1.600 113.406 L 1.600 126.012 13.900 125.906 L 26.200 125.800 26.306 113.300 L 26.411 100.800 14.006 100.800 L 1.600 100.800 1.600 113.406 M101.200 113.406 L 101.200 126.011 88.700 125.906 L 76.200 125.800 76.094 113.804 C 76.036 107.207,76.075 101.582,76.181 101.304 C 76.331 100.914,79.169 100.800,88.787 100.800 L 101.200 100.800 101.200 113.406 M324.894 113.300 L 325.000 125.800 337.500 125.906 L 350.000 126.011 350.000 113.406 L 350.000 100.800 337.394 100.800 L 324.789 100.800 324.894 113.300 M374.579 126.034 C 374.432 126.273,374.376 137.478,374.455 150.934 L 374.600 175.400 362.506 175.506 L 350.411 175.612 350.306 163.106 L 350.200 150.600 337.494 150.494 L 324.789 150.389 324.894 162.894 L 325.000 175.400 337.700 175.506 L 350.400 175.611 350.400 187.540 L 350.400 199.470 368.466 199.735 C 378.402 199.881,389.562 200.000,393.266 200.000 L 400.000 200.000 400.000 175.206 L 400.000 150.411 387.500 150.306 L 375.000 150.200 375.000 138.200 L 375.000 126.200 387.600 125.991 L 400.200 125.783 387.524 125.691 C 378.752 125.628,374.765 125.734,374.579 126.034 M13.800 150.391 L 26.200 150.600 26.200 163.000 L 26.200 175.400 13.800 175.612 L 1.400 175.823 14.000 175.812 L 26.600 175.800 26.712 163.800 C 26.774 157.200,26.725 151.395,26.604 150.900 L 26.385 150.000 13.892 150.091 L 1.400 150.183 13.800 150.391 M250.576 150.519 C 250.391 151.001,250.443 155.384,251.011 187.345 C 251.166 196.048,251.099 199.440,250.763 199.845 C 250.388 200.297,247.968 200.400,237.745 200.400 L 225.188 200.400 225.294 212.700 L 225.400 225.000 250.300 225.103 L 275.200 225.206 275.200 212.603 L 275.200 200.000 287.735 200.000 L 300.270 200.000 300.535 181.934 C 300.681 171.998,300.800 160.838,300.800 157.134 L 300.800 150.400 288.100 150.494 L 275.400 150.588 287.906 150.700 L 300.412 150.811 300.306 163.106 L 300.200 175.400 275.700 175.503 L 251.200 175.606 251.200 163.009 L 251.200 150.412 263.300 150.300 L 275.400 150.188 263.087 150.094 C 253.304 150.019,250.734 150.107,250.576 150.519 M175.467 150.667 C 174.955 151.179,175.159 174.999,175.680 175.520 C 176.033 175.873,179.476 176.000,188.680 176.000 L 201.200 176.000 201.200 188.000 L 201.200 200.000 213.135 200.000 L 225.070 200.000 225.334 181.700 C 225.480 171.635,225.599 160.475,225.600 156.900 L 225.600 150.400 200.667 150.400 C 186.953 150.400,175.613 150.520,175.467 150.667 M225.200 163.200 L 225.200 175.600 200.600 175.600 L 176.000 175.600 176.000 163.200 L 176.000 150.800 200.600 150.800 L 225.200 150.800 225.200 163.200 M101.600 187.813 C 101.600 198.090,101.520 199.656,100.983 199.862 C 100.643 199.992,89.483 199.965,76.183 199.801 L 52.000 199.504 52.000 187.752 L 52.000 176.000 76.800 176.000 L 101.600 176.000 101.600 187.813 M1.600 212.600 L 1.600 225.200 14.000 225.200 L 26.400 225.200 26.400 250.200 L 26.400 275.200 14.000 275.200 L 1.600 275.200 1.600 287.406 L 1.600 299.612 13.900 299.506 L 26.200 299.400 26.306 287.300 L 26.412 275.200 39.018 275.200 C 50.026 275.200,51.655 275.122,51.863 274.581 C 51.993 274.241,51.943 263.036,51.750 249.681 L 51.400 225.400 38.900 225.294 L 26.400 225.189 26.400 212.594 L 26.400 200.000 14.000 200.000 L 1.600 200.000 1.600 212.600 M300.400 231.331 C 300.400 234.707,300.519 245.866,300.665 256.129 L 300.930 274.788 312.965 274.894 L 325.000 275.000 325.106 287.300 L 325.212 299.600 337.606 299.600 L 350.000 299.600 350.000 312.000 L 350.000 324.400 337.680 324.400 C 328.631 324.400,325.233 324.527,324.880 324.880 C 324.529 325.231,324.400 328.480,324.400 337.000 C 324.400 345.520,324.529 348.769,324.880 349.120 C 325.233 349.473,328.676 349.600,337.880 349.600 L 350.400 349.600 350.400 362.200 L 350.400 374.800 325.400 374.800 L 300.400 374.800 300.400 362.200 L 300.400 349.600 287.806 349.600 L 275.211 349.600 275.106 337.100 L 275.000 324.600 263.000 324.600 L 251.000 324.600 250.894 336.900 L 250.788 349.200 244.060 349.200 C 240.359 349.200,229.204 349.081,219.272 348.935 L 201.212 348.670 201.106 336.835 L 201.000 325.000 188.500 324.894 L 176.000 324.789 176.000 312.194 L 176.000 299.600 188.167 299.600 C 194.859 299.600,200.619 299.491,200.967 299.357 C 201.717 299.069,201.946 276.106,201.206 275.366 C 200.968 275.128,200.770 269.970,200.706 262.386 L 200.600 249.800 176.000 249.800 L 151.400 249.800 151.294 262.300 L 151.189 274.800 138.794 274.800 L 126.400 274.800 126.394 262.700 C 126.391 256.045,126.244 250.374,126.068 250.097 C 125.816 249.700,120.529 249.616,100.974 249.697 L 76.200 249.800 76.097 274.700 L 75.994 299.600 63.997 299.600 L 52.000 299.600 52.000 312.200 L 52.000 324.800 64.000 324.800 L 76.000 324.800 76.000 312.200 L 76.000 299.600 88.800 299.600 L 101.600 299.600 101.600 312.197 L 101.600 324.794 126.300 324.897 L 151.000 325.000 151.200 337.000 L 151.400 349.000 176.300 348.852 L 201.200 348.704 201.200 374.152 L 201.200 399.600 225.950 399.600 L 250.701 399.600 250.998 374.600 L 251.296 349.600 263.242 349.600 L 275.189 349.600 275.294 362.100 L 275.400 374.600 287.900 374.706 L 300.400 374.811 300.400 387.206 L 300.400 399.600 325.400 399.600 L 350.400 399.600 350.400 387.265 L 350.400 374.930 368.100 374.666 C 377.835 374.520,388.995 374.401,392.900 374.400 L 400.000 374.400 400.000 349.600 L 400.000 324.800 375.194 324.800 L 350.389 324.800 350.494 312.300 L 350.600 299.800 375.400 299.852 L 400.200 299.905 375.300 299.503 L 350.400 299.101 350.400 287.156 L 350.400 275.212 362.500 275.106 L 374.600 275.000 374.706 262.300 L 374.811 249.600 387.406 249.600 L 400.000 249.600 400.000 237.394 L 400.000 225.189 387.500 225.294 L 375.000 225.400 374.800 237.400 L 374.600 249.400 362.600 249.400 L 350.600 249.400 350.400 237.400 L 350.200 225.400 325.300 225.297 L 300.400 225.194 300.400 231.331 M350.000 237.600 L 350.000 249.600 325.400 249.600 L 300.800 249.600 300.800 237.600 L 300.800 225.600 325.400 225.600 L 350.000 225.600 350.000 237.600 M225.471 249.900 C 224.906 250.862,224.741 298.653,225.301 299.118 C 225.753 299.493,231.582 299.582,250.445 299.503 L 275.000 299.400 275.103 274.500 L 275.206 249.600 250.427 249.600 C 236.798 249.600,225.568 249.735,225.471 249.900 M125.600 262.603 L 125.600 275.206 101.100 275.103 L 76.600 275.000 76.494 262.500 L 76.389 250.000 100.994 250.000 L 125.600 250.000 125.600 262.603 M175.600 262.400 L 175.600 274.800 163.600 274.800 L 151.600 274.800 151.600 262.400 L 151.600 250.000 163.600 250.000 L 175.600 250.000 175.600 262.400 M274.800 262.603 L 274.800 275.206 250.300 275.103 L 225.800 275.000 225.694 262.500 L 225.589 250.000 250.194 250.000 L 274.800 250.000 274.800 262.603 M151.000 287.400 L 151.000 299.400 138.600 299.400 L 126.200 299.400 126.094 287.805 C 126.035 281.428,126.076 275.980,126.183 275.699 C 126.338 275.297,128.996 275.211,138.690 275.294 L 151.000 275.400 151.000 287.400 M175.600 287.400 L 175.600 299.200 163.600 299.200 L 151.600 299.200 151.600 287.400 L 151.600 275.600 163.600 275.600 L 175.600 275.600 175.600 287.400 M175.400 312.200 L 175.400 324.600 163.400 324.600 L 151.400 324.600 151.294 312.604 C 151.236 306.007,151.276 300.379,151.384 300.098 C 151.538 299.697,154.124 299.611,163.490 299.694 L 175.400 299.800 175.400 312.200 M26.400 337.200 L 26.400 349.200 14.000 349.200 L 1.600 349.200 1.600 374.400 L 1.600 399.600 14.000 399.600 L 26.400 399.600 26.400 374.406 L 26.400 349.211 39.100 349.106 L 51.800 349.000 51.906 337.100 L 52.012 325.200 39.206 325.200 L 26.400 325.200 26.400 337.200 M274.800 337.000 L 274.800 348.800 263.000 348.800 L 251.200 348.800 251.200 337.000 L 251.200 325.200 263.000 325.200 L 274.800 325.200 274.800 337.000 M350.400 337.000 L 350.400 348.800 337.800 348.800 L 325.200 348.800 325.200 337.000 L 325.200 325.200 337.800 325.200 L 350.400 325.200 350.400 337.000 M76.243 349.433 C 76.109 349.781,76.000 355.541,76.000 362.233 L 76.000 374.400 64.433 374.400 C 58.071 374.400,52.581 374.509,52.233 374.643 C 51.672 374.858,51.610 376.298,51.691 387.343 L 51.783 399.800 51.991 387.400 L 52.200 375.000 64.100 374.894 L 76.000 374.788 76.000 387.194 L 76.000 399.600 101.006 399.600 L 126.012 399.600 125.906 387.300 L 125.800 375.000 113.900 374.894 L 102.000 374.788 102.000 362.274 C 102.000 353.074,101.873 349.633,101.520 349.280 C 100.700 348.460,76.560 348.606,76.243 349.433 M101.200 362.206 L 101.200 374.812 88.900 374.706 L 76.600 374.600 76.494 362.100 L 76.389 349.600 88.794 349.600 L 101.200 349.600 101.200 362.206 M250.400 362.200 L 250.400 374.800 226.000 374.800 L 201.600 374.800 201.600 362.200 L 201.600 349.600 226.000 349.600 L 250.400 349.600 250.400 362.200 M151.467 374.667 C 151.320 374.813,151.200 380.486,151.200 387.272 L 151.200 399.612 163.500 399.506 L 175.800 399.400 175.906 387.448 C 175.981 378.963,175.880 375.337,175.557 374.948 C 175.073 374.365,152.037 374.096,151.467 374.667 " stroke="none" fill="#946c4c" fill-rule="evenodd"></path><path id="path1" d="M1.600 38.200 L 1.600 76.000 14.000 76.000 L 26.400 76.000 26.400 88.206 L 26.400 100.411 39.100 100.306 L 51.800 100.200 51.906 88.097 L 52.012 75.994 76.706 76.097 L 101.400 76.200 101.600 88.200 L 101.800 100.200 113.800 100.200 L 125.800 100.200 125.902 63.300 L 126.004 26.400 138.599 26.400 L 151.194 26.400 151.297 51.100 L 151.400 75.800 163.494 75.906 L 175.589 76.012 175.694 63.506 L 175.800 51.000 188.400 51.000 L 201.000 51.000 201.103 75.706 L 201.206 100.412 213.303 100.306 L 225.400 100.200 225.506 88.300 L 225.612 76.400 238.200 76.400 L 250.788 76.400 250.894 88.300 L 251.000 100.200 262.900 100.306 L 274.800 100.412 274.800 88.686 C 274.800 80.099,274.928 76.832,275.280 76.480 C 275.633 76.127,279.030 76.000,288.074 76.000 L 300.389 76.000 300.494 63.500 L 300.600 51.000 312.800 51.000 L 325.000 51.000 325.106 63.500 L 325.211 76.000 349.800 76.000 L 374.389 76.000 374.494 63.500 L 374.600 51.000 387.300 50.894 L 400.000 50.789 400.000 25.594 L 400.000 0.400 200.800 0.400 L 1.600 0.400 1.600 38.200 M51.906 63.500 L 52.011 76.000 39.206 76.000 L 26.400 76.000 26.400 63.667 C 26.400 56.883,26.523 51.211,26.672 51.061 C 26.822 50.911,32.537 50.836,39.372 50.894 L 51.800 51.000 51.906 63.500 " stroke="none" fill="#049914" fill-rule="evenodd"></path><path id="path2" d="M76.181 101.304 C 76.075 101.582,76.036 107.207,76.094 113.804 L 76.200 125.800 88.700 125.906 L 101.200 126.011 101.200 113.406 L 101.200 100.800 88.787 100.800 C 79.169 100.800,76.331 100.914,76.181 101.304 M374.981 126.505 C 374.875 126.783,374.835 132.228,374.894 138.605 L 375.000 150.200 387.500 150.306 L 400.000 150.411 400.000 138.206 L 400.000 126.000 387.587 126.000 C 377.963 126.000,375.131 126.113,374.981 126.505 M1.600 163.000 L 1.600 175.612 13.900 175.506 L 26.200 175.400 26.200 163.000 L 26.200 150.600 13.900 150.494 L 1.600 150.388 1.600 163.000 M251.200 162.938 L 251.200 175.606 275.700 175.503 L 300.200 175.400 300.306 163.100 L 300.412 150.800 294.106 150.800 C 290.638 150.799,279.565 150.680,269.500 150.534 L 251.200 150.270 251.200 162.938 M176.000 163.200 L 176.000 175.600 200.600 175.600 L 225.200 175.600 225.200 163.200 L 225.200 150.800 200.600 150.800 L 176.000 150.800 176.000 163.200 M52.000 187.752 L 52.000 199.504 76.183 199.801 C 89.483 199.965,100.643 199.992,100.983 199.862 C 101.520 199.656,101.600 198.090,101.600 187.813 L 101.600 176.000 76.800 176.000 L 52.000 176.000 52.000 187.752 M300.800 237.600 L 300.800 249.600 325.400 249.600 L 350.000 249.600 350.000 237.600 L 350.000 225.600 325.400 225.600 L 300.800 225.600 300.800 237.600 M76.494 262.500 L 76.600 275.000 101.100 275.103 L 125.600 275.206 125.600 262.603 L 125.600 250.000 100.994 250.000 L 76.389 250.000 76.494 262.500 M151.600 262.400 L 151.600 274.800 163.600 274.800 L 175.600 274.800 175.600 262.400 L 175.600 250.000 163.600 250.000 L 151.600 250.000 151.600 262.400 M225.694 262.500 L 225.800 275.000 250.300 275.103 L 274.800 275.206 274.800 262.603 L 274.800 250.000 250.194 250.000 L 225.589 250.000 225.694 262.500 M126.183 275.699 C 126.076 275.980,126.035 281.428,126.094 287.805 L 126.200 299.400 138.600 299.400 L 151.000 299.400 151.000 287.400 L 151.000 275.400 138.690 275.294 C 128.996 275.211,126.338 275.297,126.183 275.699 M151.384 300.098 C 151.276 300.379,151.236 306.007,151.294 312.604 L 151.400 324.600 163.400 324.600 L 175.400 324.600 175.400 312.200 L 175.400 299.800 163.490 299.694 C 154.124 299.611,151.538 299.697,151.384 300.098 M350.700 299.813 C 350.535 299.989,350.400 305.683,350.400 312.467 L 350.400 324.800 375.200 324.800 L 400.000 324.800 400.000 312.400 L 400.000 300.000 393.466 300.000 C 389.872 300.000,378.847 299.886,368.966 299.746 C 359.085 299.607,350.865 299.637,350.700 299.813 M251.200 337.000 L 251.200 348.800 263.000 348.800 L 274.800 348.800 274.800 337.000 L 274.800 325.200 263.000 325.200 L 251.200 325.200 251.200 337.000 M325.200 337.000 L 325.200 348.800 337.800 348.800 L 350.400 348.800 350.400 337.000 L 350.400 325.200 337.800 325.200 L 325.200 325.200 325.200 337.000 M76.494 362.100 L 76.600 374.600 88.900 374.706 L 101.200 374.812 101.200 362.206 L 101.200 349.600 88.794 349.600 L 76.389 349.600 76.494 362.100 M201.600 362.200 L 201.600 374.800 226.000 374.800 L 250.400 374.800 250.400 362.200 L 250.400 349.600 226.000 349.600 L 201.600 349.600 201.600 362.200 M52.267 375.067 C 52.120 375.213,52.000 380.793,52.000 387.467 L 52.000 399.600 64.000 399.600 L 76.000 399.600 76.000 387.200 L 76.000 374.800 64.267 374.800 C 57.813 374.800,52.413 374.920,52.267 375.067 " stroke="none" fill="#bc845c" fill-rule="evenodd"></path><path id="path3" d="M125.902 63.300 L 125.800 100.200 113.800 100.200 L 101.800 100.200 101.600 88.200 L 101.400 76.200 76.706 76.097 L 52.011 75.994 51.906 63.497 L 51.800 51.000 39.200 51.000 L 26.600 51.000 26.494 63.500 L 26.389 76.000 13.994 76.000 L 1.600 76.000 1.600 88.200 L 1.600 100.400 14.000 100.400 L 26.400 100.400 26.400 88.200 L 26.400 76.000 39.206 76.000 L 52.012 76.000 51.906 88.100 L 51.800 100.200 39.200 100.409 C 32.270 100.523,28.850 100.663,31.600 100.718 C 34.350 100.773,51.031 100.601,68.669 100.335 C 95.044 99.937,100.851 99.944,101.369 100.375 C 101.919 100.831,102.000 102.510,102.000 113.449 L 102.000 126.000 113.794 126.000 L 125.589 126.000 125.694 113.300 L 125.800 100.600 163.200 100.600 L 200.600 100.600 200.706 113.300 L 200.811 126.000 176.206 126.000 L 151.600 126.000 151.600 138.196 L 151.600 150.392 188.100 150.162 C 208.175 150.036,224.825 149.864,225.100 149.779 C 225.485 149.660,225.600 146.914,225.600 137.813 L 225.600 126.000 250.400 126.000 L 275.200 126.000 275.200 138.000 L 275.200 150.000 287.800 150.000 L 300.400 150.000 300.400 138.000 L 300.400 126.000 287.794 126.000 L 275.189 126.000 275.294 113.300 L 275.400 100.600 287.894 100.494 L 300.388 100.389 300.494 88.494 L 300.600 76.600 312.694 76.494 L 324.788 76.388 324.894 88.294 L 325.000 100.200 337.694 100.306 L 350.389 100.411 350.494 113.106 L 350.600 125.800 362.600 125.800 L 374.600 125.800 374.703 101.100 L 374.806 76.400 387.403 76.400 L 400.000 76.400 400.000 63.594 L 400.000 50.789 387.300 50.894 L 374.600 51.000 374.494 63.500 L 374.389 76.000 349.800 76.000 L 325.211 76.000 325.106 63.500 L 325.000 51.000 312.800 51.000 L 300.600 51.000 300.494 63.500 L 300.389 76.000 288.074 76.000 C 279.030 76.000,275.633 76.127,275.280 76.480 C 274.928 76.832,274.800 80.099,274.800 88.686 L 274.800 100.412 262.900 100.306 L 251.000 100.200 250.894 88.300 L 250.788 76.400 238.200 76.400 L 225.612 76.400 225.506 88.300 L 225.400 100.200 213.303 100.306 L 201.206 100.412 201.103 75.706 L 201.000 51.000 188.400 51.000 L 175.800 51.000 175.694 63.506 L 175.589 76.012 163.494 75.906 L 151.400 75.800 151.297 51.100 L 151.194 26.400 138.599 26.400 L 126.004 26.400 125.902 63.300 M26.581 126.505 C 26.475 126.783,26.435 132.228,26.494 138.605 L 26.600 150.200 39.100 150.306 L 51.600 150.411 51.600 138.206 L 51.600 126.000 39.187 126.000 C 29.563 126.000,26.731 126.113,26.581 126.505 M225.867 175.867 C 225.720 176.013,225.600 181.413,225.600 187.867 L 225.600 199.600 238.000 199.600 L 250.400 199.600 250.400 187.600 L 250.400 175.600 238.267 175.600 C 231.593 175.600,226.013 175.720,225.867 175.867 M175.872 200.261 C 175.723 200.411,175.600 206.054,175.600 212.801 L 175.600 225.070 157.534 225.335 C 147.598 225.481,136.438 225.600,132.734 225.600 L 126.000 225.600 126.000 237.603 L 126.000 249.606 150.700 249.503 L 175.400 249.400 175.506 237.506 L 175.612 225.611 188.306 225.506 L 201.000 225.400 201.000 212.800 L 201.000 200.200 188.572 200.094 C 181.737 200.036,176.022 200.111,175.872 200.261 M350.494 212.900 L 350.600 225.400 362.152 225.506 C 370.341 225.582,373.863 225.480,374.252 225.157 C 374.694 224.790,374.800 222.357,374.800 212.551 L 374.800 200.400 362.594 200.400 L 350.389 200.400 350.494 212.900 M52.267 225.467 C 52.120 225.613,52.000 231.106,52.000 237.673 L 52.000 249.612 64.100 249.506 L 76.200 249.400 76.306 237.848 C 76.382 229.659,76.280 226.137,75.957 225.748 C 75.473 225.165,52.837 224.896,52.267 225.467 M201.384 250.098 C 201.276 250.379,201.236 256.096,201.294 262.804 L 201.400 275.000 213.200 275.000 L 225.000 275.000 225.000 262.400 L 225.000 249.800 213.290 249.694 C 204.088 249.611,201.538 249.697,201.384 250.098 M275.600 262.394 L 275.600 275.200 288.006 275.200 L 300.411 275.200 300.306 262.500 L 300.200 249.800 287.900 249.694 L 275.600 249.588 275.600 262.394 M300.583 275.699 C 300.476 275.980,300.435 281.428,300.494 287.805 L 300.600 299.400 312.600 299.400 L 324.600 299.400 324.600 287.400 L 324.600 275.400 312.690 275.294 C 303.318 275.211,300.738 275.297,300.583 275.699 M374.581 275.705 C 374.474 275.983,374.435 281.338,374.494 287.605 L 374.600 299.000 387.300 299.106 L 400.000 299.211 400.000 287.206 L 400.000 275.200 387.387 275.200 C 377.598 275.200,374.732 275.313,374.581 275.705 M26.494 312.100 L 26.600 324.600 39.000 324.600 L 51.400 324.600 51.506 312.100 L 51.611 299.600 39.000 299.600 L 26.389 299.600 26.494 312.100 M225.467 325.067 C 225.320 325.213,225.200 330.613,225.200 337.067 L 225.200 348.800 237.800 348.800 L 250.400 348.800 250.400 336.800 L 250.400 324.800 238.067 324.800 C 231.283 324.800,225.613 324.920,225.467 325.067 M275.600 336.800 L 275.600 348.800 288.000 348.800 L 300.400 348.800 300.400 336.800 L 300.400 324.800 288.000 324.800 L 275.600 324.800 275.600 336.800 M51.784 349.698 C 51.676 349.979,51.636 355.607,51.694 362.204 L 51.800 374.200 63.800 374.200 L 75.800 374.200 75.800 361.800 L 75.800 349.400 63.890 349.294 C 54.524 349.211,51.938 349.297,51.784 349.698 M126.094 361.900 L 126.200 374.600 138.600 374.600 L 151.000 374.600 151.106 361.900 L 151.211 349.200 138.600 349.200 L 125.989 349.200 126.094 361.900 M175.694 362.100 L 175.800 374.600 188.200 374.600 L 200.600 374.600 200.706 362.100 L 200.811 349.600 188.200 349.600 L 175.589 349.600 175.694 362.100 M374.581 375.305 C 374.475 375.582,374.435 381.117,374.494 387.605 L 374.600 399.400 387.300 399.506 L 400.000 399.611 400.000 387.206 L 400.000 374.800 387.387 374.800 C 377.605 374.800,374.731 374.913,374.581 375.305 " stroke="none" fill="#5c3c2c" fill-rule="evenodd"></path><path id="path4" d="M300.667 76.667 C 300.520 76.813,300.400 82.211,300.400 88.661 L 300.400 100.389 287.900 100.494 L 275.400 100.600 275.294 113.300 L 275.189 126.000 250.394 126.000 L 225.600 126.000 225.600 137.813 C 225.600 146.914,225.485 149.660,225.100 149.779 C 224.825 149.864,208.175 150.036,188.100 150.162 L 151.600 150.392 151.600 138.196 L 151.600 126.000 176.206 126.000 L 200.811 126.000 200.706 113.300 L 200.600 100.600 163.200 100.600 L 125.800 100.600 125.694 113.300 L 125.589 126.000 113.794 126.000 L 102.000 126.000 102.000 113.480 C 102.000 104.276,101.873 100.833,101.520 100.480 C 101.164 100.124,97.896 100.023,88.820 100.091 L 76.600 100.183 89.000 100.391 L 101.400 100.600 101.503 125.300 L 101.606 150.000 113.755 150.000 L 125.904 150.000 126.202 125.400 L 126.499 100.800 138.853 100.800 L 151.206 100.800 151.103 125.500 L 151.000 150.200 138.494 150.306 L 125.989 150.411 126.094 162.906 L 126.200 175.400 138.700 175.506 L 151.200 175.611 151.200 200.406 L 151.200 225.200 138.606 225.200 L 126.011 225.200 125.906 212.700 L 125.800 200.200 113.800 200.200 L 101.800 200.200 101.694 212.706 L 101.589 225.211 88.894 225.106 L 76.200 225.000 76.094 212.706 L 75.988 200.412 63.894 200.306 L 51.800 200.200 51.694 188.027 C 51.612 178.555,51.700 175.783,52.094 175.533 C 52.372 175.357,63.628 175.209,77.106 175.206 L 101.612 175.200 101.506 162.900 L 101.400 150.600 76.800 150.400 L 52.200 150.200 52.097 125.506 L 51.994 100.812 64.297 100.706 C 71.064 100.648,59.680 100.600,39.000 100.600 C 18.320 100.600,7.028 100.648,13.906 100.706 L 26.411 100.811 26.306 113.306 L 26.200 125.800 13.900 125.906 L 1.600 126.012 1.600 138.006 L 1.600 150.000 13.992 150.000 L 26.385 150.000 26.604 150.900 C 26.725 151.395,26.774 157.200,26.712 163.800 L 26.600 175.800 14.100 175.906 L 1.600 176.011 1.600 188.006 L 1.600 200.000 14.000 200.000 L 26.400 200.000 26.400 212.600 L 26.400 225.200 14.000 225.200 L 1.600 225.200 1.600 250.200 L 1.600 275.200 14.006 275.200 L 26.412 275.200 26.306 287.300 L 26.200 299.400 13.900 299.506 L 1.600 299.612 1.600 324.406 L 1.600 349.200 14.000 349.200 L 26.400 349.200 26.400 374.400 L 26.400 399.600 39.000 399.600 L 51.600 399.600 51.600 387.200 C 51.600 378.298,51.727 374.800,52.049 374.800 C 52.378 374.800,52.376 374.654,52.043 374.252 C 51.720 373.862,51.619 370.185,51.694 361.552 L 51.800 349.400 64.100 349.400 C 70.865 349.400,76.400 349.265,76.400 349.100 C 76.400 348.563,100.979 348.739,101.520 349.280 C 101.873 349.633,102.000 353.074,102.000 362.274 L 102.000 374.788 113.900 374.894 L 125.800 375.000 125.906 387.300 L 126.012 399.600 138.600 399.600 L 151.189 399.600 151.294 387.100 L 151.400 374.600 163.152 374.494 C 171.623 374.417,175.059 374.517,175.463 374.852 C 175.924 375.235,176.003 377.444,175.911 387.458 L 175.800 399.600 188.500 399.600 L 201.200 399.600 201.200 374.155 L 201.200 348.709 225.994 349.006 L 250.788 349.304 250.894 336.952 L 251.000 324.600 263.000 324.600 L 275.000 324.600 275.106 337.100 L 275.211 349.600 263.271 349.600 L 251.331 349.600 251.065 368.266 C 250.919 378.532,250.800 389.782,250.800 393.266 L 250.800 399.600 275.600 399.600 L 300.400 399.600 300.400 387.200 L 300.400 374.800 325.400 374.800 L 350.400 374.800 350.400 387.200 L 350.400 399.600 362.500 399.600 L 374.600 399.600 374.600 387.300 L 374.600 375.000 387.200 374.766 C 394.130 374.637,388.685 374.612,375.100 374.709 L 350.400 374.887 350.400 362.244 L 350.400 349.600 337.880 349.600 C 328.676 349.600,325.233 349.473,324.880 349.120 C 324.195 348.435,324.195 325.565,324.880 324.880 C 325.233 324.527,328.631 324.400,337.680 324.400 L 350.000 324.400 350.000 312.000 L 350.000 299.600 337.606 299.600 L 325.212 299.600 325.106 287.300 L 325.000 275.000 312.965 274.894 L 300.930 274.788 300.665 256.129 C 300.519 245.866,300.400 234.707,300.400 231.331 L 300.400 225.194 325.300 225.297 L 350.200 225.400 350.400 237.400 L 350.600 249.400 362.600 249.400 L 374.600 249.400 374.800 237.400 L 375.000 225.400 387.500 225.294 L 400.000 225.189 400.000 212.594 L 400.000 200.000 393.266 200.000 C 389.562 200.000,378.402 199.881,368.466 199.735 L 350.400 199.470 350.400 187.541 L 350.400 175.612 362.500 175.506 L 374.600 175.400 374.600 150.600 L 374.600 125.800 387.300 125.694 L 400.000 125.589 400.000 100.994 L 400.000 76.400 387.403 76.400 L 374.806 76.400 374.703 101.100 L 374.600 125.800 362.600 125.800 L 350.600 125.800 350.494 113.106 L 350.389 100.411 337.694 100.306 L 325.000 100.200 324.894 88.300 L 324.788 76.400 312.861 76.400 C 306.301 76.400,300.813 76.520,300.667 76.667 M350.000 113.406 L 350.000 126.011 337.500 125.906 L 325.000 125.800 324.894 113.300 L 324.789 100.800 337.394 100.800 L 350.000 100.800 350.000 113.406 M51.600 138.206 L 51.600 150.411 39.100 150.306 L 26.600 150.200 26.494 138.605 C 26.435 132.228,26.475 126.783,26.581 126.505 C 26.731 126.113,29.563 126.000,39.187 126.000 L 51.600 126.000 51.600 138.206 M300.400 138.000 L 300.400 150.000 287.800 150.000 L 275.200 150.000 275.200 138.000 L 275.200 126.000 287.800 126.000 L 300.400 126.000 300.400 138.000 M294.100 150.400 L 300.800 150.400 300.800 157.134 C 300.800 160.838,300.681 171.998,300.535 181.934 L 300.270 200.000 287.735 200.000 L 275.200 200.000 275.200 212.603 L 275.200 225.206 250.300 225.103 L 225.400 225.000 225.294 212.700 L 225.188 200.400 237.745 200.400 C 247.968 200.400,250.388 200.297,250.763 199.845 C 251.099 199.440,251.166 196.048,251.011 187.345 C 250.440 155.205,250.393 150.996,250.601 150.454 C 250.795 149.948,253.285 149.905,269.112 150.134 C 279.171 150.280,290.415 150.399,294.100 150.400 M225.600 156.900 C 225.599 160.475,225.480 171.635,225.334 181.700 L 225.070 200.000 213.135 200.000 L 201.200 200.000 201.200 188.000 L 201.200 176.000 188.680 176.000 C 179.476 176.000,176.033 175.873,175.680 175.520 C 175.159 174.999,174.955 151.179,175.467 150.667 C 175.613 150.520,186.953 150.400,200.667 150.400 L 225.600 150.400 225.600 156.900 M350.306 163.106 L 350.411 175.611 337.706 175.506 L 325.000 175.400 324.894 162.894 L 324.789 150.389 337.494 150.494 L 350.200 150.600 350.306 163.106 M250.400 187.600 L 250.400 199.600 238.000 199.600 L 225.600 199.600 225.600 187.867 C 225.600 181.413,225.720 176.013,225.867 175.867 C 226.013 175.720,231.593 175.600,238.267 175.600 L 250.400 175.600 250.400 187.600 M201.000 212.800 L 201.000 225.400 188.311 225.506 L 175.623 225.611 175.511 237.600 L 175.400 249.589 188.000 249.695 L 200.600 249.800 200.706 262.386 C 200.770 269.970,200.968 275.128,201.206 275.366 C 201.946 276.106,201.717 299.069,200.967 299.357 C 200.619 299.491,194.859 299.600,188.167 299.600 L 176.000 299.600 176.000 312.194 L 176.000 324.789 188.500 324.894 L 201.000 325.000 201.106 336.847 L 201.212 348.695 176.571 348.992 C 162.122 349.167,151.781 349.141,151.571 348.931 C 151.374 348.734,151.165 343.269,151.106 336.786 L 151.000 325.000 126.300 324.897 L 101.600 324.794 101.600 312.197 L 101.600 299.600 88.800 299.600 L 76.000 299.600 76.000 312.200 L 76.000 324.800 64.000 324.800 L 52.000 324.800 52.000 312.200 L 52.000 299.600 63.997 299.600 L 75.994 299.600 76.097 274.700 L 76.200 249.800 100.974 249.697 C 120.529 249.616,125.816 249.700,126.068 250.097 C 126.244 250.374,126.391 256.045,126.394 262.700 L 126.400 274.800 138.789 274.800 L 151.178 274.800 151.289 262.200 L 151.400 249.600 138.700 249.600 L 126.000 249.600 126.000 237.600 L 126.000 225.600 132.734 225.600 C 136.438 225.600,147.598 225.481,157.534 225.335 L 175.600 225.070 175.600 212.801 C 175.600 206.054,175.723 200.411,175.872 200.261 C 176.022 200.111,181.737 200.036,188.572 200.094 L 201.000 200.200 201.000 212.800 M374.800 212.551 C 374.800 222.357,374.694 224.790,374.252 225.157 C 373.863 225.480,370.341 225.582,362.152 225.506 L 350.600 225.400 350.494 212.900 L 350.389 200.400 362.594 200.400 L 374.800 200.400 374.800 212.551 M51.750 249.681 C 51.943 263.036,51.993 274.241,51.863 274.581 C 51.655 275.122,50.026 275.200,39.013 275.200 L 26.400 275.200 26.400 250.194 L 26.400 225.189 38.900 225.294 L 51.400 225.400 51.750 249.681 M75.957 225.748 C 76.280 226.137,76.382 229.659,76.306 237.848 L 76.200 249.400 64.100 249.506 L 52.000 249.612 52.000 237.673 C 52.000 231.106,52.120 225.613,52.267 225.467 C 52.837 224.896,75.473 225.165,75.957 225.748 M275.103 274.500 L 275.000 299.400 250.445 299.503 C 232.217 299.580,225.745 299.486,225.328 299.140 C 224.865 298.756,224.787 296.613,224.883 286.837 L 225.000 275.000 213.200 275.000 L 201.400 275.000 201.294 262.804 C 201.236 256.096,201.274 250.384,201.379 250.111 C 201.529 249.719,209.405 249.612,238.388 249.606 L 275.206 249.600 275.103 274.500 M300.306 262.500 L 300.411 275.200 288.006 275.200 L 275.600 275.200 275.600 262.394 L 275.600 249.588 287.900 249.694 L 300.200 249.800 300.306 262.500 M374.706 262.300 L 374.600 275.000 362.500 275.106 L 350.400 275.212 350.400 287.141 L 350.400 299.070 368.700 299.334 C 378.765 299.480,389.970 299.558,393.600 299.508 C 397.899 299.449,395.737 299.344,387.400 299.208 L 374.600 299.000 374.600 287.200 L 374.600 275.400 387.300 275.294 L 400.000 275.189 400.000 262.394 L 400.000 249.600 387.406 249.600 L 374.811 249.600 374.706 262.300 M324.600 287.400 L 324.600 299.400 312.600 299.400 L 300.600 299.400 300.494 287.805 C 300.435 281.428,300.476 275.980,300.583 275.699 C 300.738 275.297,303.318 275.211,312.690 275.294 L 324.600 275.400 324.600 287.400 M151.600 287.400 L 151.600 299.200 163.600 299.200 L 175.600 299.200 175.600 287.400 L 175.600 275.600 163.600 275.600 L 151.600 275.600 151.600 287.400 M51.506 312.100 L 51.400 324.600 39.000 324.600 L 26.600 324.600 26.494 312.100 L 26.389 299.600 39.000 299.600 L 51.611 299.600 51.506 312.100 M250.400 336.800 L 250.400 348.800 237.800 348.800 L 225.200 348.800 225.200 337.067 C 225.200 330.613,225.320 325.213,225.467 325.067 C 225.613 324.920,231.283 324.800,238.067 324.800 L 250.400 324.800 250.400 336.800 M300.400 336.800 L 300.400 348.800 288.000 348.800 L 275.600 348.800 275.600 336.800 L 275.600 324.800 288.000 324.800 L 300.400 324.800 300.400 336.800 M51.906 337.100 L 51.800 349.000 39.100 349.106 L 26.400 349.211 26.400 337.206 L 26.400 325.200 39.206 325.200 L 52.012 325.200 51.906 337.100 M151.106 361.900 L 151.000 374.600 138.600 374.600 L 126.200 374.600 126.094 361.900 L 125.989 349.200 138.600 349.200 L 151.211 349.200 151.106 361.900 M200.706 362.100 L 200.600 374.600 188.200 374.600 L 175.800 374.600 175.694 362.100 L 175.589 349.600 188.200 349.600 L 200.811 349.600 200.706 362.100 M300.400 362.206 L 300.400 374.811 287.900 374.706 L 275.400 374.600 275.294 362.100 L 275.189 349.600 287.794 349.600 L 300.400 349.600 300.400 362.206 " stroke="none" fill="#7c543c" fill-rule="evenodd"></path></g></svg>